# xmcd
#
# Track frame offsets:
# 150
# 15630
# 30045
# 44955
# 60520
# 75667
# 93787
# 112130
# 126532
# 146675
# 163227
# 180325
# 197250
# 212122
# 229400
# 244800
#
# Disc length: 3474 seconds
#
#
# Revision: 0
# Processed by: cddbd v1.5.2PL0 Copyright (c) Steve Scherf et al.
# Submitted via: FreeRIP 2.944 
#
DISCID=db0d9010
DTITLE=Forro Flor da Terra - Abraçando Você
DYEAR=1900
DGENRE=Forro
TTITLE0=O Sonho Acabou
TTITLE1=Caminhos do Sol
TTITLE2=Gata Selvagem
TTITLE3=Encanto e Magia
TTITLE4=Feitos Um Pro Outro
TTITLE5=Palavras de Amor
TTITLE6=Quero Me entregar Para Você
TTITLE7=Sem Te Tocar
TTITLE8=Ainda Te Quero
TTITLE9=Tempo ao Tempo
TTITLE10=Nada Vai Nos Separar
TTITLE11=Abraçando Você
TTITLE12=Nega
TTITLE13=Tempos Inuteis
TTITLE14=Tentação
TTITLE15=Promete e Não Faz
EXTD=
EXTT0=
EXTT1=
EXTT2=
EXTT3=
EXTT4=
EXTT5=
EXTT6=
EXTT7=
EXTT8=
EXTT9=
EXTT10=
EXTT11=
EXTT12=
EXTT13=
EXTT14=
EXTT15=
PLAYORDER=
